<svg xmlns="http://www.w3.org/2000/svg" viewBox="0 0 1400 900"><defs><linearGradient id="g" x1="0" x2="1"><stop stop-color="#e9f2f8"/><stop offset="1" stop-color="#cbd9e4"/></linearGradient><linearGradient id="b" x1="0" x2="1"><stop stop-color="#0a192f"/><stop offset="1" stop-color="#1a365d"/></linearGradient></defs><rect width="1400" height="900" fill="url(#g)"/><rect width="1400" height="900" fill="#0a192f" opacity=".08"/><g opacity=".2" stroke="#1a365d" stroke-width="2"><path d="M0 160h1400M0 320h1400M0 480h1400M0 640h1400M0 800h1400"/><path d="M160 0v900M320 0v900M480 0v900M640 0v900M800 0v900M960 0v900M1120 0v900M1280 0v900"/></g><g filter="drop-shadow(0 30px 35px rgba(15,23,42,.22))"><rect x="145" y="205" width="520" height="360" rx="32" fill="#f8fafc"/><rect x="190" y="250" width="430" height="70" rx="16" fill="url(#b)"/><rect x="215" y="365" width="90" height="125" rx="14" fill="#dbeafe"/><rect x="335" y="365" width="90" height="125" rx="14" fill="#dbeafe"/><rect x="455" y="365" width="90" height="125" rx="14" fill="#dbeafe"/><path d="M225 415c28-28 54-28 82 0s54 28 82 0 54-28 82 0" fill="none" stroke="#0f7da5" stroke-width="8" stroke-linecap="round"/><path d="M225 455c28-28 54-28 82 0s54 28 82 0 54-28 82 0" fill="none" stroke="#0f7da5" stroke-width="8" stroke-linecap="round"/></g><g filter="drop-shadow(0 30px 35px rgba(15,23,42,.22))"><rect x="745" y="250" width="485" height="310" rx="32" fill="#f8fafc"/><rect x="805" y="305" width="345" height="190" rx="20" fill="#dbeafe"/><path d="M840 365h270M840 420h270M840 475h270" stroke="#1a365d" stroke-width="15" stroke-linecap="round"/><circle cx="1185" cy="350" r="17" fill="#0f7da5"/><circle cx="1185" cy="410" r="17" fill="#0f7da5"/><circle cx="1185" cy="470" r="17" fill="#0f7da5"/></g><path d="M665 385h80M1230 405h50c45 0 80 35 80 80v115M405 565v80c0 45 35 80 80 80h510" fill="none" stroke="#1a365d" stroke-width="22" stroke-linecap="round"/><g transform="translate(1000 640)"><circle r="92" fill="#0f7da5"/><path d="M0-55v110M-48-28l96 56M48-28l-96 56" stroke="#fff" stroke-width="10" fill="none" stroke-linecap="round"/></g></svg>